<svg width="30" height="30" viewBox="0 0 30 30" fill="none" xmlns="http://www.w3.org/2000/svg">
<path d="M7.2859 19.9128H0V10.0022H7.2859V19.9128Z" fill="#0050C3"/>
<path d="M26.103 24.2199L24.8697 22.9598C27.041 20.8346 28.2368 17.9967 28.2368 14.9691C28.2368 11.9299 27.0331 9.08449 24.8478 6.95689L26.0778 5.69344C28.6071 8.1559 30 11.45 30 14.9691C30 18.4748 28.6161 21.7602 26.103 24.2199Z" fill="#FFDE46"/>
<path d="M23.4407 21.8882L22.2439 20.5934C23.8112 19.1447 24.7101 17.0948 24.7101 14.9691C24.7101 12.8321 23.8033 10.7747 22.2222 9.32455L23.4141 8.02506C25.3583 9.80836 26.4734 12.3393 26.4734 14.9691C26.4734 17.585 25.368 20.1069 23.4407 21.8882Z" fill="#FFDE46"/>
<path d="M20.737 19.567L19.6328 18.1923C20.6184 17.4006 21.1836 16.2258 21.1836 14.969C21.1836 13.7017 20.6105 12.5206 19.6111 11.7287L20.7063 10.3467C22.1303 11.4752 22.9469 13.1599 22.9469 14.9691C22.9469 16.763 22.1414 18.4389 20.737 19.567Z" fill="#FFDE46"/>
<path d="M7.28584 14.9579H0V19.9127H7.28584V14.9579Z" fill="#00317E"/>
<path d="M28.2366 14.958C28.2366 14.9617 28.2367 14.9654 28.2367 14.9691C28.2367 17.9968 27.0409 20.8346 24.8696 22.9598L26.103 24.22C28.616 21.7602 30 18.4748 30 14.9691C30 14.9654 29.9999 14.9617 29.9999 14.958H28.2366V14.958Z" fill="#EBB100"/>
<path d="M24.71 14.958C24.71 14.9617 24.7102 14.9654 24.7102 14.9691C24.7102 17.0948 23.8112 19.1448 22.244 20.5934L23.4408 21.8882C25.3681 20.1069 26.4734 17.585 26.4734 14.9691C26.4734 14.9654 26.4733 14.9617 26.4733 14.958H24.71V14.958Z" fill="#EBB100"/>
<path d="M21.1834 14.959C21.1834 14.9627 21.1836 14.9663 21.1836 14.9701C21.1836 16.2268 20.6184 17.4016 19.6328 18.1934L20.737 19.5681C22.1414 18.44 22.9469 16.7641 22.9469 14.9701C22.9469 14.9664 22.9468 14.9628 22.9467 14.959H21.1834V14.959Z" fill="#EBB100"/>
<path d="M17.363 26.8276L5.94128 19.7815L5.94515 10.1312L17.3531 3.17238L17.363 26.8276Z" fill="#D3D0F3"/>
<path d="M5.94322 14.958L5.94128 19.7815L17.363 26.8276L17.3581 14.958H5.94322Z" fill="#B9B6EC"/>
</svg>
