<svg width="30" height="30" viewBox="0 0 30 30" fill="none" xmlns="http://www.w3.org/2000/svg">
<path d="M13.9453 28.7068C20.3975 28.7068 25.6281 23.4803 25.6281 17.033C25.6281 10.5857 20.3975 5.3591 13.9453 5.3591C7.49307 5.3591 2.26251 10.5857 2.26251 17.033C2.26251 23.4803 7.49307 28.7068 13.9453 28.7068Z" fill="#A4C9FF"/>
<path d="M13.9453 29.065C7.30954 29.065 1.91095 23.6679 1.91095 17.0339C1.91095 10.3999 7.30954 5.00296 13.9453 5.00296C20.581 5.00296 25.9796 10.4 25.9796 17.034C25.9796 23.668 20.581 29.065 13.9453 29.065ZM13.9453 5.70609C7.69732 5.70609 2.61407 10.7878 2.61407 17.034C2.61407 23.2802 7.69732 28.3618 13.9453 28.3618C20.1933 28.3618 25.2765 23.2801 25.2765 17.0339C25.2765 10.7877 20.1933 5.70609 13.9453 5.70609Z" fill="#E0EBFC"/>
<path d="M13.9453 29.0584C12.0611 29.0584 10.3054 27.7803 9.0019 25.4598C7.73428 23.2031 7.03619 20.2104 7.03619 17.033C7.03619 13.8555 7.73428 10.8627 9.0019 8.60613C10.3054 6.28546 12.0611 5.00742 13.9453 5.00742C15.8296 5.00742 17.5853 6.28546 18.8888 8.60601C20.1564 10.8626 20.8545 13.8553 20.8545 17.0328C20.8545 20.2104 20.1564 23.2031 18.8888 25.4598C17.5853 27.7805 15.8296 29.0584 13.9453 29.0584ZM13.9453 5.71054C10.5233 5.71054 7.73932 10.7897 7.73932 17.0328C7.73932 23.276 10.5233 28.3553 13.9453 28.3553C17.3673 28.3553 20.1514 23.2761 20.1514 17.0328C20.1514 10.7898 17.3673 5.71054 13.9453 5.71054Z" fill="#E0EBFC"/>
<path d="M13.7546 12.715C10.549 12.715 7.5326 11.4696 5.26116 9.20812C5.12545 9.073 5.12287 8.85409 5.2553 8.71581C7.54889 6.32155 10.6351 5.00296 13.9453 5.00296C15.5638 5.00296 17.1349 5.31913 18.6151 5.9428C20.0475 6.54855 21.3333 7.41515 22.4374 8.51847C22.5728 8.6537 22.5751 8.87249 22.4426 9.01054C20.1508 11.3993 17.0653 12.715 13.7546 12.715ZM6.00893 8.953C8.11631 10.9282 10.8531 12.0118 13.7546 12.0118C16.7551 12.0118 19.5592 10.8643 21.6894 8.77241C20.7074 7.84862 19.5828 7.11538 18.3417 6.5905C16.9489 6.00362 15.4696 5.70597 13.9455 5.70597C10.9455 5.70609 8.14092 6.8564 6.00893 8.953Z" fill="#E0EBFC"/>
<path d="M13.9771 29.0584C10.7626 29.0584 7.74059 27.8075 5.46762 25.5362C5.33227 25.401 5.32992 25.1822 5.46246 25.0441C7.7543 22.6554 10.8398 21.3398 14.1505 21.3398C17.365 21.3398 20.387 22.5907 22.66 24.862C22.7953 24.9973 22.7977 25.2161 22.6651 25.3541C20.3733 27.7428 17.2877 29.0584 13.9771 29.0584ZM6.21563 25.2823C8.32477 27.2666 11.0673 28.3553 13.9771 28.3553C16.9777 28.3553 19.7817 27.2078 21.912 25.1159C19.8028 23.1315 17.0604 22.0429 14.1505 22.0429C11.1499 22.043 8.34598 23.1905 6.21563 25.2823Z" fill="#E0EBFC"/>
<path d="M25.6281 17.735H2.26251C2.06833 17.735 1.91095 17.5776 1.91095 17.3835C1.91095 17.1893 2.06833 17.0319 2.26251 17.0319H25.6281C25.8222 17.0319 25.9796 17.1893 25.9796 17.3835C25.9796 17.5776 25.8222 17.735 25.6281 17.735Z" fill="#E0EBFC"/>
<path d="M13.9453 29.311C7.17384 29.311 1.66498 23.8036 1.66498 17.034C1.66498 10.2644 7.17384 4.75687 13.9453 4.75687C20.7167 4.75687 26.2256 10.2643 26.2256 17.0339C26.2256 23.8035 20.7167 29.311 13.9453 29.311ZM13.9453 5.22562C7.43236 5.22562 2.13373 10.5228 2.13373 17.0339C2.13373 23.545 7.43236 28.8423 13.9453 28.8423C20.4582 28.8423 25.7569 23.5451 25.7569 17.034C25.7569 10.523 20.4582 5.22562 13.9453 5.22562Z" fill="#3762CC"/>
<path d="M25.1422 0.923431H17.5488C15.9148 0.923431 14.5904 2.248 14.5904 3.88183V7.13613C14.5904 8.77007 15.915 10.0945 17.5488 10.0945H19.4553L21.0982 12.5945C21.215 12.7724 21.4757 12.7724 21.5927 12.5945L23.2355 10.0945H25.1421C26.776 10.0945 28.1005 8.76995 28.1005 7.13613V3.88183C28.1006 2.24788 26.776 0.923431 25.1422 0.923431Z" fill="#F9CFCF"/>
<path d="M17.5488 0.923431C15.9148 0.923431 14.5904 2.248 14.5904 3.88183V7.13613C14.5904 8.77007 15.915 10.0945 17.5488 10.0945H19.4553L19.4681 10.1139L23.7537 0.923431H17.5488Z" fill="#6BDDDD"/>
<path d="M19.4553 6.00152C19.3698 6.00152 19.2823 5.95886 19.1949 5.8746C19.0995 5.78261 18.9959 5.64644 18.8877 5.4696L18.8523 5.41206L18.7991 5.45343C18.564 5.63624 18.3342 5.77499 18.1159 5.86581C17.8995 5.95581 17.6533 6.0014 17.3836 6.0014C17.1399 6.0014 16.9231 5.95288 16.7397 5.85714C16.5576 5.7621 16.4157 5.63179 16.3174 5.46972C16.2192 5.30765 16.1696 5.12952 16.1696 4.94027C16.1696 4.68515 16.2515 4.46472 16.4127 4.28519C16.5757 4.1039 16.8038 3.98038 17.0906 3.91792C17.1543 3.90327 17.3104 3.87058 17.5594 3.81972C17.8102 3.76862 18.025 3.72175 18.2039 3.67909C18.3815 3.63691 18.5779 3.58464 18.7876 3.52359L18.8332 3.51034L18.8311 3.46288C18.8181 3.18573 18.7623 2.98593 18.6605 2.8521C18.5541 2.7123 18.3482 2.64444 18.0319 2.64444C17.7666 2.64444 17.5705 2.68148 17.4327 2.75753C17.297 2.83265 17.1796 2.94597 17.0837 3.09433C16.994 3.23296 16.9306 3.3246 16.8952 3.36679C16.8836 3.38062 16.8415 3.41261 16.6994 3.41261C16.602 3.41261 16.5203 3.38237 16.4498 3.32026C16.3814 3.26026 16.3483 3.18515 16.3483 3.09069C16.3483 2.93015 16.4066 2.77077 16.5218 2.61714C16.6383 2.46187 16.8244 2.3312 17.0753 2.22901C17.329 2.12566 17.6509 2.07327 18.0319 2.07327C18.4587 2.07327 18.7976 2.12378 19.0391 2.22351C19.2734 2.32019 19.441 2.47476 19.5372 2.68276C19.6362 2.89722 19.6865 3.18761 19.6865 3.54585C19.6865 3.7787 19.6859 3.9764 19.6845 4.13882C19.6833 4.30148 19.6815 4.48218 19.6792 4.68105C19.6792 4.87405 19.7112 5.07655 19.7745 5.28374C19.853 5.54027 19.8648 5.62804 19.8648 5.65745C19.8648 5.74194 19.8245 5.81812 19.7417 5.89054C19.656 5.9653 19.5623 6.00152 19.4553 6.00152ZM18.7498 4.0064C18.6078 4.05855 18.3968 4.11468 18.1227 4.17339C17.8435 4.23316 17.6502 4.2771 17.543 4.30511C17.4281 4.33511 17.3173 4.39429 17.2137 4.48101C17.1027 4.57405 17.0466 4.70413 17.0466 4.86773C17.0466 5.03507 17.1106 5.17921 17.2369 5.29616C17.3621 5.41194 17.5266 5.47066 17.7259 5.47066C17.9314 5.47066 18.1237 5.42495 18.2978 5.3346C18.4739 5.24343 18.6053 5.12331 18.6884 4.97777C18.7842 4.81722 18.831 4.56409 18.831 4.20515V3.97675L18.7498 4.0064Z" fill="#4671C6"/>
<path d="M26.1308 6.48201C25.9106 6.26216 25.6028 6.1267 25.2146 6.07877L25.2374 5.99474C25.2701 5.87439 25.1864 5.75369 25.0623 5.74185L24.8873 5.72521C24.7837 5.71537 24.6898 5.78615 24.6707 5.88834L24.6432 6.03435C24.3806 6.04736 24.1628 6.07818 23.9934 6.12611L24.0239 5.63966L25.4224 5.52353C25.5768 5.51076 25.7074 5.38103 25.6958 5.22658C25.6839 5.06755 25.5431 4.95423 25.3888 4.97181L24.0524 5.12439L24.096 4.57396C24.1084 4.41787 23.985 4.28427 23.8283 4.28427C23.6875 4.28427 23.5706 4.39314 23.5605 4.53353L23.5165 5.14958L22.9199 5.16224C22.7657 5.16552 22.6291 5.28751 22.6324 5.44162C22.6358 5.60005 22.768 5.71888 22.9202 5.71173L23.4909 5.68455L23.4568 6.3306C23.2663 6.43666 23.0802 6.57986 22.9032 6.75681C22.5917 7.06818 22.4339 7.45923 22.4339 7.91884C22.4339 8.18345 22.5125 8.39603 22.6676 8.55072C22.8096 8.69275 22.9692 8.76482 23.1423 8.76482C23.38 8.76482 23.6558 8.63521 23.9842 8.3692L24.0418 8.51181C24.0418 8.51181 24.1015 8.59162 24.173 8.5349L24.4666 8.3017C24.5175 8.26138 24.5341 8.19142 24.5069 8.13248L24.4317 7.96959C24.6817 7.6915 24.9096 7.22779 25.11 6.5897C25.3725 6.62064 25.5814 6.71205 25.7314 6.86181C25.863 6.99377 25.9298 7.19744 25.9298 7.46732C25.9298 7.71142 25.863 7.90185 25.7314 8.03345C25.5813 8.18357 25.2959 8.28881 24.8815 8.34681C24.7874 8.35994 24.7338 8.46236 24.7757 8.54767L24.9119 8.82517C24.9398 8.88189 25.0036 8.914 25.0657 8.90217C25.5712 8.80537 25.9424 8.64119 26.1702 8.41338C26.4035 8.18017 26.5217 7.86845 26.5217 7.48701C26.5216 7.07978 26.3903 6.74158 26.1308 6.48201ZM23.1424 8.23185C23.0538 8.23185 23.0318 8.21404 23.0279 8.21029C22.9605 8.14291 22.9277 8.06697 22.9277 7.97802C22.9277 7.61674 23.0407 7.32049 23.2636 7.09771C23.3569 7.00443 23.4436 6.93154 23.5222 6.87998C23.5537 7.20963 23.6272 7.55298 23.7411 7.90244C23.5159 8.12099 23.3146 8.23185 23.1424 8.23185ZM24.1808 7.43345C24.0948 7.17377 24.0439 6.90318 24.0295 6.62709C24.1864 6.57962 24.3575 6.55267 24.5398 6.54693C24.4597 6.89005 24.3394 7.18748 24.1808 7.43345Z" fill="#4671C6"/>
<path d="M21.3454 12.9622C21.1664 12.9622 21.0008 12.8728 20.9023 12.7232L19.3289 10.3289H17.5488C15.7883 10.3289 14.356 8.89663 14.356 7.13613V3.88183C14.356 2.12132 15.7883 0.689056 17.5488 0.689056H25.1421C26.9026 0.689056 28.3348 2.12132 28.3348 3.88183V7.13613C28.3348 8.89663 26.9026 10.3289 25.1421 10.3289H23.362L21.7885 12.7233C21.6902 12.8729 21.5246 12.9622 21.3454 12.9622ZM17.5488 1.15769C16.0468 1.15769 14.8248 2.37972 14.8248 3.88171V7.13601C14.8248 8.638 16.0468 9.86003 17.5488 9.86003H19.4553C19.5342 9.86003 19.6079 9.89976 19.6511 9.96574L21.2941 12.4657C21.3091 12.4885 21.3303 12.4934 21.3454 12.4934C21.3605 12.4934 21.3818 12.4885 21.3968 12.4657L23.0396 9.96574C23.083 9.89976 23.1566 9.86003 23.2354 9.86003H25.1421C26.6441 9.86003 27.8661 8.638 27.8661 7.13601V3.88171C27.8661 2.37972 26.6441 1.15769 25.1421 1.15769H17.5488Z" fill="#3762CC"/>
</svg>
