<svg width="30" height="30" viewBox="0 0 30 30" fill="none" xmlns="http://www.w3.org/2000/svg">
<path d="M24.961 30H5.03907C3.55289 30 2.34375 28.7102 2.34375 27.1248V11.9975C2.34375 11.4452 2.76346 10.9974 3.28125 10.9974C3.79904 10.9974 4.21875 11.4452 4.21875 11.9975V27.1248C4.21875 27.6073 4.58672 27.9999 5.03907 27.9999H24.961C25.4133 27.9999 25.7813 27.6073 25.7813 27.1248V11.9975C25.7813 11.4452 26.201 10.9974 26.7188 10.9974C27.2366 10.9974 27.6563 11.4452 27.6563 11.9975V27.1248C27.6563 28.7102 26.4472 30 24.961 30Z" fill="white"/>
<path d="M29.0625 15.4974C28.8226 15.4974 28.5827 15.3998 28.3996 15.2044L16.7401 2.76688C15.7806 1.74331 14.2194 1.74331 13.2599 2.76688L1.60042 15.2045C1.23432 15.5951 0.640709 15.5951 0.274615 15.2045C-0.0915382 14.814 -0.0915382 14.1807 0.274615 13.7902L11.9341 1.35253C13.6246 -0.450844 16.3754 -0.450844 18.0659 1.35253L29.7254 13.7902C30.0915 14.1807 30.0915 14.8139 29.7254 15.2044C29.5424 15.3998 29.3025 15.4974 29.0625 15.4974Z" fill="white"/>
<path d="M18.75 30H11.25C10.7322 30 10.3125 29.5523 10.3125 29V20.1243C10.3125 18.4011 11.6268 16.9991 13.2422 16.9991H16.7578C18.3733 16.9991 19.6875 18.4011 19.6875 20.1243V29C19.6875 29.5523 19.2678 30 18.75 30ZM12.1875 27.9999H17.8125V20.1243C17.8125 19.504 17.3394 18.9993 16.7578 18.9993H13.2422C12.6606 18.9993 12.1875 19.504 12.1875 20.1243V27.9999Z" fill="white"/>
</svg>
