<svg width="30" height="30" viewBox="0 0 30 30" fill="none" xmlns="http://www.w3.org/2000/svg">
<path d="M2.92341 27.0018L0.0527242 10.7035C0.0250052 10.5462 0.00772609 10.3873 0.00100011 10.2277C-0.0416625 8.37988 1.28514 6.78374 3.10962 6.48802L8.64928 5.51044L8.49928 27.0018H2.92341Z" fill="#35495E"/>
<path d="M24.2441 26.2881C24.1481 26.6869 23.8254 26.9912 23.4217 27.0639L7.11827 29.9398C6.09066 30.1192 5.03556 29.8474 4.22254 29.1938C3.40952 28.5402 2.91733 27.5681 2.87172 26.526C2.83098 24.7593 4.04729 23.2113 5.77345 22.8329L10.3407 24.1156H10.3355L6.22345 24.845C5.76483 24.9256 5.36651 25.2075 5.13808 25.6133C4.90965 26.0191 4.87517 26.5059 5.04413 26.9398C5.3367 27.6386 6.07973 28.0361 6.82345 27.8915L19.2838 25.6932L24.2441 26.2881Z" fill="#2C3E50"/>
<path d="M10.3355 24.1156L6.22342 24.8449C5.7648 24.9255 5.36648 25.2075 5.13805 25.6133C4.90962 26.0191 4.87514 26.5059 5.0441 26.9398C5.33667 27.6386 6.0797 28.0361 6.82341 27.8915L19.2838 25.6932L10.3355 24.1156Z" fill="#F9EAB0"/>
<path d="M6.59888 17.1541L9.47319 0.853734C9.57608 0.293434 10.11 -0.0803044 10.6716 0.014769L26.8494 2.86736C28.6752 3.1633 30.003 4.76046 29.9606 6.6096C29.9536 6.76848 29.9363 6.92673 29.9089 7.08339L27.0346 23.3837L6.59888 17.1541Z" fill="#E64C3C"/>
<path d="M23.4672 5.41426C23.4369 5.41425 23.4066 5.41165 23.3767 5.4065L11.6607 3.34064C11.3963 3.27543 11.2277 3.01639 11.2752 2.74825C11.3227 2.4801 11.57 2.2947 11.8407 2.32426L23.5562 4.38754C23.8204 4.43383 24.0054 4.67443 23.9823 4.94167C23.9591 5.20892 23.7355 5.41411 23.4672 5.41426Z" fill="#3F5C6C"/>
<path d="M20.9803 7.6001C20.95 7.60015 20.9197 7.59738 20.8898 7.59183L13.2491 6.24649C12.9742 6.19074 12.7938 5.92603 12.8425 5.64979C12.8912 5.37355 13.1512 5.18646 13.4286 5.22804L21.0698 6.57286C21.3356 6.61777 21.5223 6.85924 21.4989 7.12776C21.4755 7.39627 21.2498 7.60182 20.9803 7.6001Z" fill="#3F5C6C"/>
<path d="M22.0602 9.91033L11.361 8.02033C11.0797 7.97062 10.8113 8.15843 10.7616 8.43981L9.86156 13.5346C9.81186 13.816 9.99967 14.0844 10.281 14.1341L20.9802 16.0241C21.2616 16.0738 21.53 15.886 21.5797 15.6046L22.4797 10.5098C22.5294 10.2284 22.3416 9.96003 22.0602 9.91033Z" fill="#ECF0F1"/>
<path d="M29.9596 6.60701C29.9535 6.76664 29.9362 6.92564 29.9079 7.08287L27.0321 23.3811L23.0441 22.1656L25.3562 9.05873L25.9045 5.96563L26.4631 2.80011L26.851 2.86735C28.6747 3.16453 30.0007 4.75976 29.9596 6.60701Z" fill="#C03A2B"/>
<path d="M23.9751 19.1656L7.7958 16.3156C7.73601 16.3053 7.67545 16.3001 7.61477 16.3001C7.07867 16.3015 6.63243 16.7122 6.58668 17.2463C6.54094 17.7805 6.91084 18.2611 7.43891 18.3536L23.7372 21.2242C24.1954 21.3072 24.5925 21.5908 24.8197 21.9972C25.047 22.4037 25.0806 22.8904 24.9113 23.3242C24.6203 24.0216 23.8784 24.4174 23.1372 24.2708L6.90098 21.4105C6.84118 21.4002 6.78062 21.395 6.71994 21.3949C6.18285 21.3936 5.73408 21.8035 5.68691 22.3386C5.63974 22.8736 6.00986 23.3557 6.53891 23.4484L22.8424 26.3191C23.8692 26.4991 24.9239 26.2282 25.7369 25.5756C26.5499 24.923 27.0425 23.9519 27.0889 22.9105C27.1295 21.0605 25.8014 19.4633 23.9751 19.1656Z" fill="#802F34"/>
<path d="M24.9113 23.3243C24.6204 24.0216 23.8784 24.4174 23.1372 24.2708L6.901 21.4105L7.43893 18.3536L23.7372 21.2243C24.1954 21.3072 24.5925 21.5908 24.8198 21.9972C25.047 22.4037 25.0806 22.8905 24.9113 23.3243Z" fill="#F9EAB0"/>
</svg>
