<svg width="30" height="23" viewBox="0 0 30 23" fill="none" xmlns="http://www.w3.org/2000/svg">
<path d="M9.07548 1.03371V0.907266C9.07548 0.406172 8.6693 0 8.16821 0H6.45756C5.95647 0 5.55029 0.406172 5.55029 0.907266V0.969726L9.07548 1.03371Z" fill="#EDC963"/>
<path d="M24.45 0.969726V0.907266C24.45 0.406172 24.0438 0 23.5427 0H21.8321C21.331 0 20.9248 0.406172 20.9248 0.907266V1.03371L24.45 0.969726Z" fill="#EDC963"/>
<path d="M24.45 2.05846V0.969727C23.9248 0.79043 23.3619 0.69252 22.7759 0.69252C22.1235 0.69252 21.4996 0.813399 20.9248 1.03365V2.12238L24.45 2.05846Z" fill="#E7B93E"/>
<path d="M7.22438 1.78125C7.87676 1.78125 8.50073 1.90213 9.07548 2.12244V0.907266C9.07548 0.406172 8.6693 0 8.16821 0H6.45756C5.95647 0 5.55029 0.406172 5.55029 0.907266V2.05846C6.07547 1.87916 6.63838 1.78125 7.22438 1.78125Z" fill="#EDC963"/>
<path d="M9.07548 2.12238V1.03371C8.50073 0.813394 7.87682 0.692574 7.22438 0.692574C6.63838 0.692574 6.07547 0.790484 5.55029 0.969781V2.05851L9.07548 2.12238Z" fill="#E7B93E"/>
<path d="M1.98138 21.2721C4.69866 22.477 6.02821 20.6709 6.62277 18.9081L8.06007 14.6285C8.06013 14.6285 8.06019 14.6285 8.06025 14.6286L8.06019 14.6285L8.37343 14.2402C8.37343 14.2402 9.25995 14.7199 10.0131 14.7199C10.9113 14.7199 11.7256 14.3627 12.3231 13.7832C12.3785 13.7295 12.4534 13.7007 12.5305 13.7007H17.4699C17.547 13.7007 17.6219 13.7295 17.6772 13.7832C18.2748 14.3627 19.0891 14.7199 19.9872 14.7199C20.7404 14.7199 21.627 14.2402 21.627 14.2402L21.9402 14.6285L23.3768 18.9059C23.9701 20.6703 26.2995 22.0885 28.0189 21.3748C29.0587 20.9432 29.9535 19.6441 29.9535 18.4267L27.9105 6.26027L27.9091 6.26133C27.5664 3.7316 25.3995 1.78125 22.7759 1.78125C21.2949 1.78125 19.9602 2.40346 19.0162 3.39984H10.9841C10.0401 2.40346 8.70542 1.78125 7.22441 1.78125C4.6007 1.78125 2.4339 3.7316 2.09118 6.26133L2.08984 6.26027L0.0447388 18.4388L0.0467896 18.4267C0.00014893 19.9259 0.941516 20.8405 1.98138 21.2721Z" fill="#929AA5"/>
<path d="M1.98124 20.8492C0.941375 20.4176 0.22952 19.4888 0.0466487 18.4267L0.044598 18.4388C-0.203078 19.9137 0.599832 21.3645 1.98118 21.9379C3.70085 22.6516 5.66526 21.7586 6.25805 19.9935L6.62263 18.908C6.02807 20.6709 3.69985 21.5625 1.98124 20.8492Z" fill="#3C434C"/>
<path d="M29.9535 18.4267C29.7706 19.4887 29.0587 20.4176 28.0189 20.8492C26.2995 21.5628 23.97 20.6702 23.3767 18.9059L23.742 19.9936C24.3348 21.7587 26.2991 22.6516 28.0188 21.9379C29.4002 21.3646 30.2031 19.9138 29.9554 18.4389L29.9535 18.4267Z" fill="#3C434C"/>
<path d="M21.7048 13.9274C21.6411 13.7375 21.4131 13.6607 21.2479 13.7739C20.8743 14.0299 20.5606 14.1755 19.9873 14.1755C19.0891 14.1755 18.2748 13.8183 17.6773 13.2388C17.6219 13.1851 17.547 13.1563 17.4699 13.1563H12.5305C12.4534 13.1563 12.3785 13.1851 12.3232 13.2388C11.7256 13.8183 10.9113 14.1755 10.0131 14.1755C9.43977 14.1755 9.12618 14.0299 8.75258 13.7739C8.58735 13.6607 8.35948 13.7375 8.29567 13.9274L8.06018 14.6284C8.60827 15.0279 9.28292 15.2642 10.0131 15.2642C10.9531 15.2642 11.8012 14.8729 12.4052 14.245H17.5951C18.1991 14.8729 19.0472 15.2642 19.9872 15.2642C20.7174 15.2642 21.3921 15.0279 21.9402 14.6284L21.7048 13.9274Z" fill="#3C434C"/>
<path d="M8.8139 11.4385C8.8139 11.9783 9.53502 12.86 10.1272 12.86C10.7194 12.86 11.4405 11.9741 11.4405 11.4385C11.2269 10.9236 10.7194 10.5613 10.1272 10.5613C9.53502 10.5613 9.02754 10.9236 8.8139 11.4385Z" fill="#DAD8DB"/>
<path d="M8.77957 6.11912H8.22322V5.56283C8.22322 5.03127 7.79232 4.60036 7.26076 4.60036C6.72919 4.60036 6.29829 5.03127 6.29829 5.56283V6.11912H5.742C5.21044 6.11912 4.77954 6.55002 4.77954 7.08158C4.77954 7.61315 5.21044 8.04405 5.742 8.04405H6.29829V8.60034C6.29829 9.1319 6.72919 9.5628 7.26076 9.5628C7.79232 9.5628 8.22322 9.1319 8.22322 8.60034V8.04405H8.77957C9.31113 8.04405 9.74203 7.61315 9.74203 7.08158C9.74197 6.55002 9.31107 6.11912 8.77957 6.11912Z" fill="#B3E59F"/>
<path d="M8.77957 6.11912H8.22322V5.56283C8.22322 5.03127 7.79232 4.60036 7.26076 4.60036C6.72919 4.60036 6.29829 5.03127 6.29829 5.56283V6.11912H5.742C5.21044 6.11912 4.77954 6.55002 4.77954 7.08158C4.77954 7.61315 5.21044 8.04405 5.742 8.04405H6.29829V8.60034C6.29829 9.1319 6.72919 9.5628 7.26076 9.5628C7.79232 9.5628 8.22322 9.1319 8.22322 8.60034V8.04405H8.77957C9.31113 8.04405 9.74203 7.61315 9.74203 7.08158C9.74197 6.55002 9.31107 6.11912 8.77957 6.11912Z" fill="#DAD8DB"/>
<path d="M23.0501 3.98085C22.5709 3.98085 22.179 4.37284 22.179 4.85196C22.179 5.33109 22.5709 5.72308 23.0501 5.72308C23.5292 5.72308 23.9212 5.33109 23.9212 4.85196C23.9212 4.37284 23.5292 3.98085 23.0501 3.98085Z" fill="#C4DBF9"/>
<path d="M23.0501 3.98085C22.5709 3.98085 22.179 4.37284 22.179 4.85196C22.179 5.33109 22.5709 5.72308 23.0501 5.72308C23.5292 5.72308 23.9212 5.33109 23.9212 4.85196C23.9212 4.37284 23.5292 3.98085 23.0501 3.98085Z" fill="#B3E59F"/>
<path d="M23.0501 8.44008C22.5709 8.44008 22.179 8.83207 22.179 9.31119C22.179 9.79031 22.5709 10.1823 23.0501 10.1823C23.5292 10.1823 23.9212 9.79031 23.9212 9.31119C23.9212 8.83207 23.5292 8.44008 23.0501 8.44008Z" fill="#BED8FB"/>
<path d="M26.1508 7.08158C26.1508 6.60246 25.7588 6.21046 25.2797 6.21046C24.8006 6.21046 24.4086 6.60246 24.4086 7.08158C24.4086 7.5607 24.8006 7.95269 25.2797 7.95269C25.7588 7.95263 26.1508 7.56064 26.1508 7.08158Z" fill="#EDC963"/>
<path d="M21.6916 7.08158C21.6916 6.60246 21.2996 6.21046 20.8205 6.21046C20.3413 6.21046 19.9493 6.60246 19.9493 7.08158C19.9493 7.5607 20.3413 7.95269 20.8205 7.95269C21.2996 7.95263 21.6916 7.56064 21.6916 7.08158Z" fill="#DF667C"/>
<path d="M12.1937 4.87188H17.8065C18.3773 4.87188 18.9817 3.93251 18.9817 3.39984H11.0184C11.0595 3.93251 11.6229 4.87188 12.1937 4.87188Z" fill="#A6AEC4"/>
<path d="M10.1272 12.3156C9.53497 12.3156 9.02748 11.9534 8.81385 11.4385C8.74424 11.6062 8.70569 11.79 8.70569 11.9828C8.70569 12.7679 9.34213 13.4044 10.1272 13.4044C10.9123 13.4044 11.5488 12.7679 11.5488 11.9828C11.5488 11.79 11.5102 11.6062 11.4406 11.4385C11.2269 11.9534 10.7194 12.3156 10.1272 12.3156Z" fill="#C8C5C9"/>
<path d="M18.5597 11.4385C18.5597 11.9783 19.2808 12.86 19.8731 12.86C20.4653 12.86 21.1864 11.9741 21.1864 11.4385C20.9727 10.9236 20.4653 10.5613 19.8731 10.5613C19.2808 10.5613 18.7733 10.9236 18.5597 11.4385Z" fill="#DAD8DB"/>
<path d="M19.873 12.3156C19.2808 12.3156 18.7733 11.9534 18.5596 11.4385C18.49 11.6062 18.4514 11.79 18.4514 11.9828C18.4514 12.7679 19.0879 13.4044 19.873 13.4044C20.6581 13.4044 21.2945 12.7679 21.2945 11.9828C21.2945 11.79 21.2559 11.6062 21.1863 11.4385C20.9726 11.9534 20.4652 12.3156 19.873 12.3156Z" fill="#C8C5C9"/>
<path d="M17.8066 4.32755H12.1939C11.623 4.32755 11.1458 3.9317 11.0186 3.39984H10.9842V4.20656C10.9842 4.87464 11.5258 5.41622 12.1939 5.41622H17.8066C18.4747 5.41622 19.0163 4.87464 19.0163 4.20656V3.39984H18.9819C18.8547 3.9317 18.3774 4.32755 17.8066 4.32755Z" fill="#959DB0"/>
</svg>
