<svg width="30" height="30" viewBox="0 0 30 30" fill="none" xmlns="http://www.w3.org/2000/svg">
<path d="M25.6102 14.6334C25.6102 16.3231 27.0928 17.7346 29.0709 18.0765C29.6144 18.1704 30 18.559 30 19.0051V23.2184C30 23.744 29.4691 24.1701 28.8141 24.1701H21.4439C21.2355 24.1701 21.0465 24.2381 20.91 24.3476C20.7736 24.4571 20.6888 24.6087 20.6888 24.776C20.6888 24.9481 20.7803 25.1118 20.94 25.2267C21.6366 25.7274 22.0753 26.4549 22.0753 27.2643C22.0753 28.8445 20.4061 30.1118 18.4062 29.992C16.7272 29.8916 15.3775 28.7982 15.2665 27.4502C15.1938 26.5657 15.6452 25.7647 16.3958 25.2256C16.4753 25.1684 16.5376 25.0986 16.5803 25.0222C16.623 24.9458 16.6455 24.8615 16.6455 24.776C16.6455 24.4415 16.3073 24.1701 15.8903 24.1701H8.52026C7.86531 24.1701 7.33441 23.744 7.33441 23.2184V17.3425C7.33441 17.1644 7.24446 17.0032 7.09974 16.887C6.95429 16.7702 6.75328 16.6981 6.53131 16.6981C6.30263 16.6981 6.08664 16.7769 5.93368 16.9123C5.30975 17.4641 4.40991 17.8107 3.40886 17.8107C1.43969 17.8107 -0.138763 16.4712 0.00967864 14.8663C0.134901 13.5189 1.49745 12.4358 3.17711 12.3468C4.27118 12.289 5.26324 12.6452 5.93441 13.2398C6.01093 13.3078 6.10315 13.3607 6.20435 13.3975C6.34235 13.4472 6.49677 13.4649 6.65281 13.4462C7.05016 13.3985 7.33441 13.1107 7.33441 12.7882V6.93306C7.33441 6.40747 7.86531 5.98144 8.52026 5.98144H15.8424C16.286 5.98144 16.6455 5.69286 16.6455 5.33696V5.24128C16.6455 5.05835 16.5473 4.88503 16.3786 4.76169C15.6909 4.26165 15.259 3.5389 15.259 2.73558C15.259 1.15536 16.9283 -0.111317 18.9282 0.00838993C20.6071 0.108292 21.9569 1.2023 22.0678 2.55025C22.1398 3.42757 21.6959 4.22433 20.955 4.76292C20.7863 4.88567 20.6888 5.059 20.6888 5.24134V5.33702C20.6888 5.69298 21.0483 5.9815 21.4919 5.9815H28.8141C29.469 5.9815 29.9999 6.40753 29.9999 6.93312V10.2613C29.9999 10.7074 29.6144 11.0959 29.0709 11.1899C27.0929 11.5318 25.6102 12.9437 25.6102 14.6334Z" fill="#D9B1EE"/>
<path d="M22.0746 27.2646C22.0746 28.8448 20.4054 30.112 18.4055 29.9923C18.2397 29.9821 18.0763 29.9629 17.9181 29.9333C19.4389 29.6589 20.5748 28.5686 20.5748 27.2646C20.5748 26.4552 20.1362 25.7276 19.4395 25.227C19.1232 24.9994 19.108 24.5898 19.4095 24.3479C19.546 24.2384 19.7349 24.1704 19.9434 24.1704H21.4431C21.2347 24.1704 21.0457 24.2384 20.9093 24.3479C20.7728 24.4574 20.688 24.6091 20.688 24.7764C20.688 24.9485 20.7795 25.1122 20.9392 25.2271C21.6359 25.7277 22.0746 26.4552 22.0746 27.2646Z" fill="#CB97E7"/>
<path d="M22.0675 2.5503C22.1395 3.42769 21.6955 4.22439 20.9547 4.76298C20.7859 4.88573 20.6884 5.05905 20.6884 5.2414V5.33708C20.6884 5.69274 21.0484 5.98155 21.4915 5.98155H19.9918C19.4618 5.98155 19.1887 5.62109 19.1887 5.2414C19.1887 5.05905 19.2862 4.88573 19.4549 4.76298C20.1958 4.22439 20.6397 3.42769 20.5677 2.5503C20.468 1.33595 19.362 0.327432 17.9163 0.0668656C18.238 0.00850622 18.5776 -0.0131735 18.9278 0.00786169C20.6068 0.108409 21.9565 1.20235 22.0675 2.5503Z" fill="#CB97E7"/>
<path d="M25.6099 14.6337C25.6099 16.3229 27.0931 17.7346 29.0713 18.0764C29.6142 18.1703 29.9996 18.5591 29.9996 19.0049V23.2184C29.9996 23.7437 29.4687 24.1703 28.8141 24.1703H27.3143C27.969 24.1703 28.4999 23.7437 28.4999 23.2184V19.6951C28.4999 19.2492 28.1144 18.8604 27.5715 18.7666C25.5934 18.4248 24.1251 16.3463 24.1101 14.6337C24.0959 12.926 25.5934 10.5773 27.5715 10.2355C28.1144 10.1411 28.4999 9.75289 28.4999 9.3064V6.93306C28.4999 6.40771 27.969 5.98167 27.3143 5.98167H28.8141C29.4687 5.98167 29.9996 6.40771 29.9996 6.93306V10.2614C29.9996 10.7073 29.6142 11.096 29.0713 11.1898C27.0931 11.5317 25.6099 12.944 25.6099 14.6337Z" fill="#CB97E7"/>
</svg>
