<svg width="30" height="30" viewBox="0 0 30 30" fill="none" xmlns="http://www.w3.org/2000/svg">
<path d="M2.49246 22.0508C1.31596 19.9682 0.644531 17.5625 0.644531 15C0.644531 7.07168 7.07168 0.644531 15 0.644531C22.9283 0.644531 29.3555 7.07168 29.3555 15C29.3555 17.5625 28.684 19.9682 27.5075 22.0508H2.49246Z" fill="#FFC14F"/>
<path d="M27.87 21.3666C26.8699 23.3845 25.4091 25.1336 23.6251 26.4765C23.2138 26.7861 22.7126 26.9531 22.1977 26.9531H7.8235C7.29487 26.9531 6.77971 26.7822 6.35784 26.4636C4.58162 25.1225 3.12692 23.3781 2.12994 21.3666C3.37612 16.2778 8.66479 12.4553 15 12.4553C21.3352 12.4553 26.6239 16.2778 27.87 21.3666Z" fill="#F29500"/>
<path d="M22.0312 20.5078C22.0312 24.3911 18.8832 27.5391 15 27.5391C11.1168 27.5391 7.96875 24.3911 7.96875 20.5078C7.96875 16.6246 11.1168 13.4766 15 13.4766C18.8832 13.4766 22.0312 16.6246 22.0312 20.5078Z" fill="#FFE1AA"/>
<path d="M22.0312 20.5078C22.0312 21.8183 21.6727 23.045 21.0484 24.0953C19.9982 24.7196 18.7714 25.0781 17.4609 25.0781C13.5777 25.0781 10.4297 21.9301 10.4297 18.0469C10.4297 16.7364 10.7882 15.5096 11.4125 14.4594C12.4628 13.8351 13.6896 13.4766 15 13.4766C18.8832 13.4766 22.0312 16.6246 22.0312 20.5078Z" fill="#FFFAC1"/>
<path d="M15.2344 17.4451V19.2864C15.2344 20.1112 15.5263 20.8915 16.0153 21.3737C16.7374 22.0858 17.223 23.0587 17.4092 24.1334C17.5098 24.7137 18.0062 25.1422 18.595 25.1563L20.2149 25.1953C20.7144 25.1953 21.1166 25.612 21.0928 26.1167C21.0705 26.5894 20.6633 26.9531 20.19 26.9531H10.2788C9.80552 26.9531 9.39829 26.5894 9.37602 26.1167C9.35223 25.612 9.75442 25.1953 10.2539 25.1953L13.5157 25.1517C14.5989 25.1372 15.1479 23.8254 14.3843 23.057C14.3795 23.0521 14.3746 23.0473 14.3697 23.0425C13.4298 22.1156 12.8907 20.7466 12.8907 19.2864V17.398C12.4 17.5159 11.8902 17.5781 11.3672 17.5781C8.24464 17.5781 5.59104 15.3616 4.67645 12.3046H5.9088C6.76292 14.7032 8.88764 16.4062 11.3672 16.4062C11.6167 16.4062 11.8626 16.389 12.1039 16.3555C10.4254 15.4116 9.14001 13.9851 8.51153 12.3046H9.77903C10.5076 13.8784 11.9473 15.1528 13.7619 15.8431C15.1577 15.1528 16.2652 13.8785 16.8256 12.3046H18.058C17.5704 13.9343 16.5886 15.325 15.305 16.2685C15.8118 16.3587 16.337 16.4062 16.875 16.4062C20.0984 16.4062 22.8606 14.7032 23.9709 12.3046H25.2384C24.0952 15.3616 20.7781 17.5781 16.8749 17.5781C16.3145 17.5781 15.7661 17.5324 15.2344 17.4451Z" fill="#AF2727"/>
<path d="M23.4375 11.1328C23.4375 12.7508 22.1258 14.0625 20.5078 14.0625H2.92969C1.31168 14.0625 0 12.7508 0 11.1328C0 9.5148 1.31168 8.20312 2.92969 8.20312C3.65854 8.20312 4.22525 7.5624 4.12793 6.84006C4.11053 6.71098 4.10156 6.5792 4.10156 6.44531C4.10156 4.8273 5.41324 3.51562 7.03125 3.51562H19.3358C20.9538 3.51562 22.2654 4.8273 22.2654 6.44531C22.2654 7.10484 23.4375 9.5148 23.4375 11.1328Z" fill="#498D2D"/>
<path d="M12.8896 13.7271C12.9134 14.2318 12.5112 14.6484 12.0117 14.6484H4.39453C3.89502 14.6484 3.49283 14.2318 3.51662 13.7271C3.53889 13.2543 3.94611 12.8906 4.41938 12.8906C4.89105 12.8906 5.27344 12.5082 5.27344 12.0366V12.0117C5.27344 11.5263 5.66695 11.1328 6.15234 11.1328H9.08203C9.56742 11.1328 9.96094 11.5263 9.96094 12.0117V12.0366C9.96094 12.5082 10.3433 12.8906 10.815 12.8906H11.9869C12.4601 12.8906 12.8674 13.2543 12.8896 13.7271ZM6.44531 8.49609C6.44531 8.0107 6.0518 7.61719 5.56641 7.61719H2.63672C2.15133 7.61719 1.75781 8.0107 1.75781 8.49609C1.75781 8.98148 2.15133 9.375 2.63672 9.375H5.56641C6.0518 9.375 6.44531 8.98148 6.44531 8.49609ZM30 11.1328C30 12.7508 28.6883 14.0625 27.0703 14.0625H15.5273C14.7183 14.0625 14.0625 13.4067 14.0625 12.5977C14.0625 11.7887 14.7183 11.1328 15.5273 11.1328H19.6289C20.1143 11.1328 20.5078 10.7393 20.5078 10.2539C20.5078 9.76852 20.1143 9.375 19.6289 9.375H11.7188C10.1007 9.375 8.78906 8.06332 8.78906 6.44531C8.78906 4.8273 10.1007 3.51562 11.7188 3.51562H21.6797C23.2977 3.51562 24.6094 4.8273 24.6094 6.44531C24.6094 6.45187 24.6094 6.4585 24.6093 6.46506C24.603 7.41996 25.3607 8.20312 26.3156 8.20312H27.0703C28.6883 8.20312 30 9.5148 30 11.1328ZM15.2344 6.73828C15.2344 6.25289 14.8409 5.85938 14.3555 5.85938H13.1836C12.6982 5.85938 12.3047 6.25289 12.3047 6.73828C12.3047 7.22367 12.6982 7.61719 13.1836 7.61719H14.3555C14.8409 7.61719 15.2344 7.22367 15.2344 6.73828ZM21.6797 5.56641C21.6797 5.08102 21.2862 4.6875 20.8008 4.6875H17.8711C17.3857 4.6875 16.9922 5.08102 16.9922 5.56641C16.9922 6.0518 17.3857 6.44531 17.8711 6.44531H20.8008C21.2862 6.44531 21.6797 6.0518 21.6797 5.56641Z" fill="#5DB33A"/>
<path d="M6.23151 26.3672H23.7684C21.3432 28.2408 18.3018 29.3555 15 29.3555C11.6982 29.3555 8.65682 28.2408 6.23151 26.3672Z" fill="#498D2D"/>
<path d="M17.4712 29.1435C15.1284 28.737 12.9183 27.7626 11.1119 26.3672H23.7685C21.9622 27.7626 19.814 28.737 17.4712 29.1435Z" fill="#5DB33A"/>
</svg>
