<svg width="30" height="30" viewBox="0 0 30 30" fill="none" xmlns="http://www.w3.org/2000/svg">
<g clip-path="url(#clip0)">
<path d="M14.1211 23.8477H15.8789V29.1211H14.1211V23.8477Z" fill="#E2DFF4"/>
<path d="M15 23.8477H15.8789V29.1211H15V23.8477Z" fill="#BEBCDD"/>
<path d="M18.0762 30H11.9238C11.4384 30 11.0449 29.6065 11.0449 29.1211C11.0449 28.6357 11.4384 28.2422 11.9238 28.2422H18.0762C18.5616 28.2422 18.9551 28.6357 18.9551 29.1211C18.9551 29.6065 18.5616 30 18.0762 30Z" fill="#F4F4F6"/>
<path d="M18.0762 28.2422H15V30H18.0762C18.5616 30 18.9551 29.6065 18.9551 29.1211C18.9551 28.6357 18.5616 28.2422 18.0762 28.2422Z" fill="#E2DFF4"/>
<path d="M23.2031 11.25H19.1016V13.0078H22.3242V15.6445C22.3242 19.6831 19.0386 22.9688 15 22.9688C10.9614 22.9688 7.67578 19.6831 7.67578 15.6445V13.0078H10.8984V11.25H6.79688C6.31148 11.25 5.91797 11.6435 5.91797 12.1289V15.6445C5.91797 20.6524 9.99211 24.7266 15 24.7266C20.0079 24.7266 24.082 20.6524 24.082 15.6445V12.1289C24.082 11.6435 23.6885 11.25 23.2031 11.25Z" fill="#F4F4F6"/>
<path d="M24.082 15.6445V12.1289C24.082 11.6435 23.6885 11.25 23.2031 11.25H19.1016V13.0078H22.3242V15.6445C22.3242 19.6831 19.0386 22.9688 15 22.9688V24.7266C20.0079 24.7266 24.082 20.6524 24.082 15.6445Z" fill="#E2DFF4"/>
<path d="M15 20.625C12.2538 20.625 10.0195 18.3908 10.0195 15.6445V8.61328C10.0195 5.86705 12.2538 3.63281 15 3.63281C17.7462 3.63281 19.9805 5.86705 19.9805 8.61328V15.6445C19.9805 18.3908 17.7462 20.625 15 20.625Z" fill="#6B61B1"/>
<path d="M19.9805 15.6445V8.61328C19.9805 5.86705 17.7462 3.63281 15 3.63281V20.625C17.7462 20.625 19.9805 18.3908 19.9805 15.6445Z" fill="#38336B"/>
<path d="M22.0898 4.97919C21.6045 4.97919 21.2109 5.37329 21.2109 5.85938C21.2109 6.34548 21.6045 6.73958 22.0898 6.73958C22.5752 6.73958 22.9688 6.34548 22.9688 5.85938C22.9688 5.37329 22.5752 4.97919 22.0898 4.97919Z" fill="#E2DFF4"/>
<path d="M25.1972 2.7474C24.8541 2.40363 24.2976 2.40369 23.9543 2.7474C23.611 3.09111 23.611 3.64845 23.9543 3.99222C24.9823 5.02177 24.9823 6.69709 23.9543 7.72664C23.611 8.07041 23.611 8.62769 23.9543 8.97146C24.1259 9.14332 24.3508 9.22927 24.5757 9.22927C24.8006 9.22927 25.0256 9.14332 25.1972 8.97146C26.9106 7.25537 26.9106 4.46338 25.1972 2.7474Z" fill="#E2DFF4"/>
<path d="M27.6831 0.257583C27.3399 -0.0861865 26.7834 -0.0861865 26.4402 0.257583C26.0969 0.601294 26.0969 1.15864 26.4402 1.50235C27.6022 2.66614 28.2422 4.21336 28.2422 5.85915C28.2422 7.50493 27.6022 9.05221 26.4402 10.2159C26.0969 10.5597 26.0969 11.117 26.4402 11.4607C26.6118 11.6326 26.8367 11.7185 27.0616 11.7185C27.2865 11.7185 27.5115 11.6326 27.6831 11.4607C29.1771 9.96446 30 7.97514 30 5.85915C30 3.74315 29.1771 1.75383 27.6831 0.257583Z" fill="#E2DFF4"/>
<path d="M7.91016 4.97919C8.39555 4.97919 8.78906 5.37329 8.78906 5.85938C8.78906 6.34548 8.39555 6.73958 7.91016 6.73958C7.42477 6.73958 7.03125 6.34548 7.03125 5.85938C7.03125 5.37329 7.42477 4.97919 7.91016 4.97919Z" fill="#F4F4F6"/>
<path d="M4.80276 2.7474C5.14588 2.40363 5.7024 2.40369 6.0457 2.7474C6.38895 3.09111 6.38895 3.64845 6.0457 3.99222C5.01768 5.02177 5.01768 6.69709 6.0457 7.72664C6.38895 8.07041 6.38895 8.62769 6.0457 8.97146C5.87408 9.14332 5.64914 9.22927 5.42426 9.22927C5.19938 9.22927 4.97438 9.14332 4.80282 8.97146C3.08942 7.25537 3.08942 4.46338 4.80276 2.7474Z" fill="#F4F4F6"/>
<path d="M2.31686 0.257583C2.66004 -0.0861865 3.21656 -0.0861865 3.5598 0.257583C3.90305 0.601294 3.90305 1.15864 3.5598 1.50235C2.39777 2.66614 1.75781 4.21336 1.75781 5.85915C1.75781 7.50493 2.39777 9.05221 3.5598 10.2159C3.90305 10.5597 3.90305 11.117 3.5598 11.4607C3.38818 11.6326 3.16324 11.7185 2.93836 11.7185C2.71348 11.7185 2.48848 11.6326 2.31691 11.4607C0.822832 9.96446 0 7.97514 0 5.85915C0 3.74315 0.822832 1.75383 2.31686 0.257583Z" fill="#F4F4F6"/>
</g>
<defs>
<clipPath id="clip0">
<rect width="30" height="30" fill="white"/>
</clipPath>
</defs>
</svg>
