<svg width="30" height="30" viewBox="0 0 30 30" fill="none" xmlns="http://www.w3.org/2000/svg">
<path d="M15 26.5675C21.5267 26.5675 26.8175 21.2766 26.8175 14.75C26.8175 8.22336 21.5267 2.9325 15 2.9325C8.47342 2.9325 3.18256 8.22336 3.18256 14.75C3.18256 21.2766 8.47342 26.5675 15 26.5675Z" fill="#ED4545"/>
<path d="M9.39617 13.6638L19.4941 12.2518L18.3942 6.37107L6.65732 9.24416C5.23537 9.59227 4.30876 10.8254 4.54003 12.0621C4.59007 12.3295 4.69074 12.5769 4.83201 12.7988L10.0843 25.0159L11.664 24.4593C11.664 24.4593 11.2109 18.6047 10.7367 16.8824C10.5302 16.1325 9.96997 14.8669 9.39617 13.6638Z" fill="#F9C291"/>
<path d="M10.7411 24.7845C10.5062 22.6445 9.93389 17.6565 9.56451 16.3148C9.35808 15.5649 8.79775 14.2994 8.22394 13.0962L18.3219 11.6842L17.3748 6.62062L6.65726 9.24416C5.23531 9.59226 4.3087 10.8254 4.53997 12.062C4.59001 12.3295 4.69068 12.5769 4.83195 12.7988L10.0842 25.0159L10.7411 24.7845Z" fill="#FDCC99"/>
<path d="M28.4581 20.7955C28.1926 20.7043 27.9587 20.6318 27.7681 20.5842C26.8381 20.3514 24.9618 20.2016 23.3949 20.1119L21.4219 8.64973L15.5789 9.93445L18.8204 21.575C19.2131 22.9853 20.4749 23.8725 21.7036 23.6023C21.7481 23.5925 21.7918 23.5809 21.8351 23.5684L26.38 24.1348C27.2131 23.1257 27.9144 22.0038 28.4581 20.7955Z" fill="#FFB980"/>
<path d="M28.1992 21.3388C27.7905 21.1897 27.435 21.0729 27.166 21.0056C26.2359 20.7729 24.3597 20.6231 22.7927 20.5334L20.8198 9.07119L15.6546 10.2069L18.8203 21.5749C19.213 22.9852 20.4748 23.8724 21.7035 23.6023C21.748 23.5925 21.7918 23.5809 21.8351 23.5684L26.3799 24.1348C27.0867 23.2788 27.6979 22.3411 28.1992 21.3388Z" fill="#F9C291"/>
<path d="M11.5249 23.3102C11.5114 23.3198 11.5053 23.3367 11.5089 23.3528C11.618 23.8351 11.4383 24.3577 11.0112 24.6642C10.5841 24.9707 9.97522 24.3543 9.60948 24.716C9.5977 24.7276 7.96047 27.2696 7.26502 28.0004C6.82721 28.4604 6.62266 29.0055 6.95207 29.4645L7.0303 29.5735C7.16635 29.7631 7.43037 29.8065 7.61993 29.6704L13.2102 25.6584C13.3998 25.5224 13.4432 25.2584 13.3071 25.0688L12.1145 23.407C11.9784 23.2175 11.7144 23.1741 11.5249 23.3102Z" fill="#48B758"/>
<path d="M9.97629 25.4671L9.72288 25.5377C9.57223 25.5797 9.41462 25.4909 9.37261 25.3403L9.0797 24.2905C9.03769 24.1399 9.12651 23.9822 9.27716 23.9402L9.53057 23.8696C9.68122 23.8276 9.83883 23.9164 9.88085 24.067L10.1738 25.1168C10.2157 25.2674 10.1269 25.4251 9.97629 25.4671Z" fill="#8AC164"/>
<path d="M12.4012 25.5539C12.4269 24.777 11.5156 23.3854 11.5156 23.3854C11.6096 23.8586 11.4287 24.3647 11.0112 24.6643C10.5841 24.9708 9.97522 24.3543 9.60948 24.716C9.5977 24.7277 7.96047 27.2697 7.26502 28.0004C6.82721 28.4605 6.62266 29.0055 6.95207 29.4646L7.0303 29.5736C7.13119 29.7142 7.30252 29.7742 7.46166 29.7403L12.2274 26.2666C12.4169 26.1306 12.3916 25.8417 12.4012 25.5539Z" fill="#8AC164"/>
<path d="M9.60936 24.716C9.59758 24.7277 7.96035 27.2697 7.2649 28.0004C6.82709 28.4605 6.62254 29.0055 6.95195 29.4646" fill="#F47D36"/>
<path d="M10.131 27.7946L10.4666 27.5499L8.57237 26.2651C8.49889 26.3717 8.42424 26.4792 8.34924 26.5862L10.131 27.7946Z" fill="#D3EEF4"/>
<path d="M10.774 27.3258L11.1097 27.0812L8.99338 25.6458C8.92372 25.7495 8.85042 25.8581 8.77454 25.9697L10.774 27.3258Z" fill="#D3EEF4"/>
<path d="M9.19226 25.3481L11.4171 26.8571L11.7528 26.6125L9.408 25.022C9.34689 25.1149 9.27406 25.2251 9.19226 25.3481Z" fill="#D3EEF4"/>
<path d="M7.07703 28.2229L7.62781 28.5942C7.62781 28.5942 9.64577 25.9587 10.3361 24.6832C10.0676 24.6081 9.80403 24.5235 9.60932 24.7161C9.59755 24.7277 7.96033 27.2698 7.26488 28.0005C7.19621 28.0727 7.13316 28.1471 7.07703 28.2229Z" fill="#D5E26D"/>
<path d="M7.46154 29.7404L9.09637 28.5488C8.58989 28.3041 8.09623 27.8838 7.69656 27.4818C7.53344 27.6939 7.38508 27.8742 7.2649 28.0005C6.82709 28.4606 6.62254 29.0057 6.95195 29.4647L7.03017 29.5737C7.13107 29.7142 7.3024 29.7742 7.46154 29.7404Z" fill="#ABBAC3"/>
<path d="M13.6068 25.5098L7.39231 29.9698C7.31925 30.0223 7.21589 30.0046 7.16268 29.9304C7.10954 29.8563 7.12577 29.7528 7.19889 29.7003C7.19889 29.7003 11.5789 25.9701 13.0957 24.7976C13.1668 24.7426 13.5898 25.2056 13.643 25.2797C13.6962 25.3538 13.6799 25.4573 13.6068 25.5098Z" fill="#57646E"/>
<path d="M7.15047 29.9101L12.9958 25.715C13.0689 25.6626 13.0852 25.5591 13.032 25.4849C12.9996 25.4397 12.8294 25.2497 12.6855 25.1209C10.9132 26.537 7.19892 29.7004 7.19892 29.7004C7.13224 29.7482 7.11309 29.8383 7.15047 29.9101Z" fill="#7A8D9D"/>
<path d="M8.21752 27.1983C8.17902 27.2529 8.10297 27.2661 8.04836 27.2276L7.78199 27.0401C7.72739 27.0016 7.71414 26.9255 7.75264 26.8709C7.79114 26.8163 7.86719 26.8031 7.9218 26.8416L8.18816 27.0291C8.24272 27.0676 8.25596 27.1437 8.21752 27.1983Z" fill="#009E9E"/>
<path d="M8.58122 26.6817C8.54273 26.7363 8.46667 26.7496 8.41207 26.7111L8.1457 26.5235C8.09109 26.485 8.07785 26.409 8.11635 26.3544C8.15484 26.2997 8.2309 26.2865 8.28551 26.325L8.55187 26.5126C8.60642 26.551 8.6196 26.6271 8.58122 26.6817Z" fill="#009E9E"/>
<path d="M8.94494 26.1651C8.90645 26.2197 8.83039 26.2329 8.77578 26.1945L8.50941 26.0069C8.4548 25.9684 8.44156 25.8923 8.48006 25.8377C8.51855 25.7831 8.59461 25.7699 8.64922 25.8084L8.91559 25.9959C8.97014 26.0344 8.98338 26.1105 8.94494 26.1651Z" fill="#009E9E"/>
<path d="M9.30865 25.6485C9.27015 25.7031 9.1941 25.7164 9.13949 25.6779L8.87312 25.4903C8.81851 25.4518 8.80527 25.3758 8.84377 25.3212C8.88226 25.2666 8.95831 25.2533 9.01292 25.2918L9.27929 25.4794C9.33384 25.5178 9.34708 25.5939 9.30865 25.6485Z" fill="#009E9E"/>
<path d="M22.1449 7.95299C21.8782 7.05639 21.473 6.481 21.0045 6.1217L20.7741 4.99353L14.0683 6.36275L14.2286 7.1482L13.7499 7.34086C13.6106 7.37426 13.5358 7.52561 13.5937 7.65656L16.372 13.9354C16.4232 14.0512 16.5586 14.1035 16.6744 14.0523L19.4679 12.8162C21.3534 11.982 23.0479 10.9897 22.1449 7.95299Z" fill="#6F7F89"/>
<path d="M20.1014 5.64012L20.0015 5.15139L14.0681 6.36287L14.2285 7.14832L13.7497 7.34098C13.6105 7.37438 13.5356 7.52572 13.5936 7.65668L16.1386 13.4082L18.5648 12.3347C20.4502 11.5004 22.1448 10.5081 21.2417 7.47147C20.9751 6.57469 20.5699 5.99936 20.1014 5.64012Z" fill="#7A8D9D"/>
<path d="M12.5428 0.204961L13.0466 6.69352C13.1714 7.30441 13.6329 7.34713 14.2438 7.22244C14.2438 7.22244 17.2599 5.80928 18.3521 5.6516C19.7163 5.45467 21.0653 5.53359 20.9333 4.88742L20.122 0.914121C18.5265 0.32332 16.8011 0 15.0001 0C14.1628 0 13.3421 0.0708398 12.5428 0.204961Z" fill="#ACE0F3"/>
<path d="M18.2533 13.3537L18.6103 13.1957L15.9725 5.97398L15.5865 6.05279L18.2533 13.3537Z" fill="#1CACAB"/>
<path d="M17.6192 13.6343L14.9662 6.37107L14.6003 6.50473L17.2622 13.7923L17.6192 13.6343Z" fill="#1CACAB"/>
<path d="M17.342 12.8757L14.9662 6.37107L14.6003 6.50473L16.985 13.0337L17.342 12.8757Z" fill="#68C7C2"/>
<path d="M17.9762 12.5951L18.3333 12.4371L15.9725 5.97398L15.9361 5.98143L15.5865 6.05279L17.9762 12.5951Z" fill="#68C7C2"/>
<path d="M12.4867 0.214219L13.0466 6.69346C13.1714 7.30436 13.6329 7.34707 14.2438 7.22238C14.2438 7.22238 17.2599 5.80922 18.352 5.65154C19.0401 5.55223 19.724 5.52299 20.2163 5.43557C20.2213 5.3966 20.2202 5.35471 20.2109 5.30883L19.2543 0.623789C17.9071 0.21873 16.4793 0 15.0001 0C14.1432 0 13.3037 0.0739453 12.4867 0.214219Z" fill="#D3EEF4"/>
</svg>
