<?xml version="1.0"?>
<svg xmlns="http://www.w3.org/2000/svg" height="512px" viewBox="0 0 464 464" width="512px" class=""><g><path d="m168 12.847656-46.039062 51.152344h46.039062zm0 0" data-original="#000000" class="active-path" data-old_color="#000000" fill="#b9bcc0"/><path d="m327.175781 232h-79.175781v55.664062c34.671875-2.855468 64.792969-24.183593 79.175781-55.664062zm0 0" data-original="#000000" class="active-path" data-old_color="#000000" fill="#b9bcc0"/><path d="m232 152v-55.59375c-49.199219 4.089844-88 45.355469-88 95.59375s38.800781 91.503906 88 95.59375v-55.59375h-10.425781l-60-40 60-40zm0 0" data-original="#000000" class="active-path" data-old_color="#000000" fill="#b9bcc0"/><path d="m400 184v-16h-168v16h112v16h-112v16h168v-16h-40v-16zm0 0" data-original="#000000" class="active-path" data-old_color="#000000" fill="#b9bcc0"/><path d="m248 96.335938v55.664062h79.175781c-14.382812-31.480469-44.503906-52.808594-79.175781-55.664062zm0 0" data-original="#000000" class="active-path" data-old_color="#000000" fill="#b9bcc0"/><path d="m216 174.945312-25.574219 17.054688 25.574219 17.054688zm0 0" data-original="#000000" class="active-path" data-old_color="#000000" fill="#b9bcc0"/><path d="m240 304c-11.40625 0-22.414062-1.734375-32.792969-4.921875 10.59375 17.882813 16.792969 38.664063 16.792969 60.921875 0 44.464844-24.359375 83.273438-60.382812 104h252.382812v-232h-71.496094c-16.511718 43.28125-57.75 72-104.503906 72zm144 144h-128v-16h16v-16h16v16h16v-40h16v40h16v-64h16v64h16v-80h16zm-32-168h40v40h-16v-12.6875l-48 48-16-16-58.34375 58.34375-11.3125-11.3125 69.65625-69.65625 16 16 36.6875-36.6875h-12.6875zm0 0" data-original="#000000" class="active-path" data-old_color="#000000" fill="#b9bcc0"/><path d="m440 168h-24v48h24c13.230469 0 24-10.769531 24-24s-10.769531-24-24-24zm0 0" data-original="#000000" class="active-path" data-old_color="#000000" fill="#b9bcc0"/><path d="m128 192c0-61.761719 50.238281-112 112-112 46.753906 0 87.992188 28.71875 104.503906 72h71.496094v-152h-232v80h-72v160.40625c10.464844.699219 20.558594 2.691406 30.128906 5.914062-8.96875-16.113281-14.128906-34.617187-14.128906-54.320312zm256-176h16v16h-16zm0 32h16v16h-16zm0 32h16v16h-16zm-32-64h16v16h-16zm0 32h16v16h-16zm-32-32h16v16h-16zm0 0" data-original="#000000" class="active-path" data-old_color="#000000" fill="#b9bcc0"/><path d="m208 360c0-57.34375-46.65625-104-104-104s-104 46.65625-104 104 46.65625 104 104 104 104-46.65625 104-104zm-104 88c-48.519531 0-88-39.480469-88-88 0-20.246094 7.0625-40.023438 19.878906-55.6875l12.378906 10.144531c-8.785156 10.726563-14.210937 23.832031-15.753906 37.542969h15.496094v16h-15.527344c3.703125 33.320312 30.207032 59.824219 63.527344 63.527344v-15.527344h16v15.496094c13.710938-1.542969 26.816406-6.96875 37.542969-15.753906l10.144531 12.378906c-15.664062 12.816406-35.441406 19.878906-55.6875 19.878906zm24-96v16h-32v-48h16v32zm31.742188 53.542969c8.785156-10.726563 14.210937-23.839844 15.753906-37.542969h-15.496094v-16h15.527344c-3.703125-33.320312-30.207032-59.824219-63.527344-63.527344v15.527344h-16v-15.496094c-13.710938 1.542969-26.816406 6.96875-37.542969 15.753906l-10.144531-12.378906c15.664062-12.816406 35.441406-19.878906 55.6875-19.878906 48.519531 0 88 39.480469 88 88 0 20.246094-7.0625 40.023438-19.878906 55.6875zm0 0" data-original="#000000" class="active-path" data-old_color="#000000" fill="#b9bcc0"/></g> </svg>
