<svg height="361pt" viewBox="-48 0 361 361.2" width="361pt" xmlns="http://www.w3.org/2000/svg"><path d="m213.398438 0v255.898438l-126.199219-167.199219zm0 361.199219-133.597657-93.898438c-1.886719-2.585937-4.898437-4.109375-8.101562-4.101562h-41.597657c-16.550781-.046875-29.953124-13.449219-30-30v-91.300781c.046876-16.546876 13.449219-29.949219 30-30h39l144.199219 191.203124v58.097657zm0 0"/><path d="m259.5 346.601562c-1.890625.003907-3.671875-.886718-4.800781-2.402343l-236.199219-313.097657c-1.988281-2.652343-1.449219-6.414062 1.199219-8.402343 2.652343-1.988281 6.414062-1.449219 8.402343 1.199219l236.199219 313.101562c.964844 1.269531 1.382813 2.871094 1.15625 4.453125-.222656 1.578125-1.074219 3-2.355469 3.945313-1.046874.765624-2.304687 1.1875-3.601562 1.203124zm0 0"/></svg>